<svg width="304" height="40" fill="none" xmlns="http://www.w3.org/2000/svg"><path fill-rule="evenodd" clip-rule="evenodd" d="M10.1 9.3l-4-4.4L2 .5h16.2l-4.1 4.4-4 4.4zm19.4 0l-4.1-4.4L21.3.5h16.2l-4.1 4.4-3.9 4.4zM19.7.5l-4.1 4.4-4.1 4.4h16.2l-4.1-4.4L19.7.5zm19.4 0L35 4.9l-4.1 4.4h16.3l-4.1-4.4-4-4.4zM19.7 19.4L15.6 15l-4.1-4.4h16.2L23.6 15l-3.9 4.4zm19.4 0L35 14.9l-4.1-4.4h16.3l-4.1 4.4-4 4.5zm-9.6-8.9l-4.1 4.4-4.1 4.4h16.2l-4.1-4.4-3.9-4.4zm19.3 0l-4.1 4.4-4.1 4.4H57l-4.1-4.4-4.1-4.4zM10.1 30.3L6 34.7l-4 4.5h16.2l-4.1-4.4-4-4.5zm38.7-1.1l-4.1-4.4-4.1-4.4H57l-4.1 4.4-4.1 4.4zm-19.3 0l-4.1-4.4-4.1-4.4h16.2l-4.1 4.4-3.9 4.4zm9.6-8.9L35 24.7l-4.1 4.4h16.3l-4.1-4.4-4-4.4zm-19.4 0l-4.1 4.4-4.1 4.4h16.2l-4.1-4.4-3.9-4.4zm19.4 18.9L35 34.8l-4.1-4.4h16.3l-4.1 4.4-4 4.4zm-19.4 0l-4.1-4.4-4.1-4.4h16.2l-4.1 4.4-3.9 4.4zm9.8-8.9l-4.1 4.4-4.1 4.4h16.2l-4.1-4.4-3.9-4.4z" fill="#fff"/><path d="M69.8 26.1V13.6c0-2.4.3-4.4.9-6.2.6-1.8 1.5-3.1 2.6-4.1 1.1-1 2.3-1.6 3.5-2.1 1.2-.5 2.6-.7 4-.7s2.6.2 3.8.6c1.2.4 2.3 1.1 3.4 2 1.1.9 1.9 2.2 2.5 3.9.6 1.7 1 3.6 1.1 5.9v.9h-4.8l-.1-.8c-.1-2.8-.8-4.8-1.8-6-1-1.2-2.5-1.9-4.1-1.9-1.9 0-3.3.7-4.5 2.1-1.2 1.4-1.7 3.7-1.7 6.8v11.7c0 3.1.6 5.4 1.7 6.8 1.1 1.4 2.6 2.1 4.5 2.1 3.7 0 5.7-2.7 6-8v-.7h4.7v.8c-.1 2.3-.4 4.3-1.1 6-.6 1.7-1.5 3-2.5 3.9-1 .9-2.2 1.6-3.4 2-1.2.4-2.5.6-3.8.6-1.4 0-2.8-.2-4-.7-1.2-.5-2.4-1.2-3.5-2.1-1.1-1-1.9-2.3-2.6-4.1-.5-1.7-.8-3.8-.8-6.2zm25.9 0V13.6c0-2.4.3-4.4.9-6.2.6-1.8 1.5-3.1 2.6-4.1 1.099-1 2.199-1.6 3.499-2.1 1.2-.4 2.6-.7 4-.7s2.7.2 3.9.6c1.2.4 2.4 1.1 3.5 2.1 1.1.9 2 2.3 2.6 4.1.6 1.8 1 3.8 1 6.2V26c0 2.4-.3 4.5-1 6.2-.7 1.7-1.5 3.1-2.6 4.1-1.1 1-2.3 1.6-3.5 2.1-1.2.5-2.6.7-3.9.7-1.4 0-2.8-.2-4-.7-1.2-.5-2.4-1.2-3.5-2.1-1.1-1-1.9-2.3-2.6-4.1-.6-1.6-.9-3.7-.9-6.1zm17.199-.4V14c0-3.1-.6-5.4-1.7-6.8-1.2-1.4-2.6-2.1-4.5-2.1s-3.3.7-4.5 2.1c-1.2 1.4-1.7 3.7-1.7 6.8v11.7c0 3.1.6 5.4 1.7 6.8 1.1 1.4 2.6 2.1 4.5 2.1 1.8 0 3.3-.7 4.5-2.1 1.1-1.4 1.7-3.7 1.7-6.8zm20.302-8.2v-3.9c0-2.4.3-4.4.9-6.2.6-1.8 1.5-3.1 2.6-4.1 1.1-1 2.2-1.6 3.5-2.1 1.3-.5 2.6-.7 4-.7s2.7.2 3.9.6c1.2.4 2.4 1.1 3.5 2.1s2 2.3 2.6 4.1c.6 1.8.9 3.8.9 6.2V26c0 2.4-.3 4.5-.9 6.2-.6 1.8-1.5 3.1-2.6 4.1-1.1 1-2.3 1.6-3.5 2.1-1.2.4-2.6.7-3.9.7-1.4 0-2.8-.2-4-.7-1.2-.5-2.4-1.2-3.5-2.1-1.1-1-1.9-2.3-2.6-4.1-.6-1.8-.9-3.8-.9-6.2v-4h-5.1v16.6h-4.8V1.1h4.8v16.4h5.1zm17.2 8.2V14c0-3.1-.6-5.4-1.7-6.8-1.1-1.4-2.6-2.1-4.5-2.1s-3.4.7-4.5 2.1c-1.1 1.4-1.7 3.7-1.7 6.8v11.7c0 3.1.6 5.4 1.7 6.8 1.1 1.4 2.6 2.1 4.5 2.1 1.8 0 3.3-.7 4.5-2.1 1.1-1.4 1.7-3.7 1.7-6.8zm20-25.1h1.1c1.1 0 2.3.2 3.4.6 1.1.4 2.1.9 3.2 1.7 1 .8 1.9 1.8 2.5 3.2.6 1.4 1 2.9 1 4.7v.9c0 2-.5 3.6-1.4 5-.9 1.4-2.1 2.3-3.5 2.8 1.6.5 2.8 1.5 3.8 2.9s1.4 3.2 1.4 5.3v.8c0 1.8-.4 3.4-.9 4.8-.6 1.4-1.4 2.5-2.4 3.3-1 .8-2.1 1.5-3.3 1.9-1.2.4-2.5.6-3.8.7h-1c-1.3 0-2.5-.3-3.7-.7-1.2-.4-2.3-1-3.3-1.8-1.1-.8-1.9-2-2.6-3.4-.7-1.5-1.1-3.2-1.3-5.2l-.1-.3h4.7c.3 2.3 1 4 2.3 5.1 1.2 1.1 2.6 1.7 4.3 1.7h.5c1.6 0 3-.6 4.2-1.7 1.2-1.1 1.7-2.6 1.7-4.5V28c0-2-.6-3.6-1.8-4.6-1.2-1.1-2.9-1.6-5-1.6h-3.4v-4.5h3.2c1.9 0 3.4-.5 4.6-1.5 1.2-1 1.8-2.5 1.8-4.4V11c0-1.9-.6-3.3-1.8-4.3-1.2-1-2.4-1.5-3.8-1.6h-.5c-1.5 0-2.9.5-4.1 1.6-1.2 1.1-2 2.7-2.3 4.8h-4.8l.1-.4c.2-1.9.6-3.5 1.3-4.9.7-1.4 1.6-2.5 2.6-3.3 1-.8 2.1-1.4 3.3-1.8 1.3-.3 2.5-.5 3.8-.5zm15.798.2h18.1v4.6h-13.4v11.8h4.6c3.8.1 6.7 1 8.6 2.9 1.9 1.9 2.9 4.4 2.9 7.7v.8c0 3.3-1 5.9-3 7.7-1.9 1.8-4.9 2.8-8.7 2.8h-9.1V.8zm9.5 21.2h-4.8v12.2h4.8c2 0 3.7-.5 4.8-1.5 1.2-1 1.8-2.4 1.8-4.4l.1-.4c0-1.9-.6-3.4-1.8-4.4-1.2-1-2.8-1.5-4.9-1.5zm31.999-16.3h-11.5v11.6h11v4.6h-11v12.4h11.5v4.6h-16.3V1.1h16.3v4.6zm23.301-4.6v4.6h-7.3v33.1h-4.7V5.7h-7.3V1.1h19.3zm2.899 25V13.6c0-2.4.3-4.4.9-6.2.6-1.8 1.5-3.1 2.6-4.1 1.1-1 2.2-1.6 3.5-2.1 1.2-.4 2.6-.7 4-.7s2.7.2 4 .6c1.2.4 2.4 1.1 3.5 2.1 1.1.9 2 2.3 2.6 4.1.6 1.8 1 3.8 1 6.2V26c0 2.4-.3 4.5-1 6.2-.7 1.7-1.5 3.1-2.6 4.1-1.1 1-2.3 1.6-3.5 2.1-1.2.5-2.5.7-4 .7-1.4 0-2.8-.2-4-.7-1.2-.5-2.4-1.2-3.5-2.1-1.1-1-1.9-2.3-2.6-4.1-.6-1.6-.9-3.7-.9-6.1zm17.2-.4V14c0-3.1-.6-5.4-1.7-6.8-1.1-1.4-2.6-2.1-4.5-2.1s-3.4.7-4.5 2.1c-1.1 1.4-1.7 3.7-1.7 6.8v11.7c0 3.1.6 5.4 1.7 6.8 1.1 1.4 2.6 2.1 4.5 2.1 1.8 0 3.3-.7 4.5-2.1 1.1-1.4 1.7-3.7 1.7-6.8zm26.204-24.6h4.7v37.6h-4.7V21.8h-10.9v16.9h-4.8V1.1h4.8v16.1h10.9V1.1z" fill="#fff"/></svg>