<svg width="304" height="40" viewBox="0 0 304 40" fill="none" xmlns="http://www.w3.org/2000/svg">
<path fill-rule="evenodd" clip-rule="evenodd" d="M10.1 9.3L6.1 4.9L2 0.5H10.1H18.2L14.1 4.9L10.1 9.3ZM29.5 9.3L25.4 4.9L21.3 0.5H29.4H37.5L33.4 4.9L29.5 9.3ZM19.7 0.5L15.6 4.9L11.5 9.3H19.6H27.7L23.6 4.9L19.7 0.5ZM39.1 0.5L35 4.9L30.9 9.3H39H47.2L43.1 4.9L39.1 0.5ZM19.7 19.4L15.6 15L11.5 10.6H19.6H27.7L23.6 15L19.7 19.4ZM39.1 19.4L35 14.9L30.9 10.5H39H47.2L43.1 14.9L39.1 19.4ZM29.5 10.5L25.4 14.9L21.3 19.3H29.4H37.5L33.4 14.9L29.5 10.5ZM48.8 10.5L44.7 14.9L40.6 19.3H48.8H57L52.9 14.9L48.8 10.5Z" fill="white"/>
<path fill-rule="evenodd" clip-rule="evenodd" d="M10.1 30.3L6 34.7L2 39.2H10.1H18.2L14.1 34.8L10.1 30.3ZM48.8 29.2L44.7 24.8L40.6 20.4H48.8H57L52.9 24.8L48.8 29.2ZM29.5 29.2L25.4 24.8L21.3 20.4H29.4H37.5L33.4 24.8L29.5 29.2ZM39.1 20.3L35 24.7L30.9 29.1H39H47.2L43.1 24.7L39.1 20.3ZM19.7 20.3L15.6 24.7L11.5 29.1H19.6H27.7L23.6 24.7L19.7 20.3ZM39.1 39.2L35 34.8L30.9 30.4H39H47.2L43.1 34.8L39.1 39.2ZM19.7 39.2L15.6 34.8L11.5 30.4H19.6H27.7L23.6 34.8L19.7 39.2ZM29.5 30.3L25.4 34.7L21.3 39.1H29.4H37.5L33.4 34.7L29.5 30.3Z" fill="white"/>
<path d="M69.8008 26.1V13.6C69.8008 11.2 70.1008 9.2 70.7008 7.4C71.3008 5.6 72.2008 4.3 73.3008 3.3C74.4008 2.3 75.6008 1.7 76.8008 1.2C78.0008 0.7 79.4008 0.5 80.8008 0.5C82.2008 0.5 83.4008 0.7 84.6008 1.1C85.8008 1.5 86.9008 2.2 88.0008 3.1C89.1008 4 89.9008 5.3 90.5008 7C91.1008 8.7 91.5008 10.6 91.6008 12.9V13.8H86.8008L86.7008 13C86.6008 10.2 85.9008 8.2 84.9008 7C83.9008 5.8 82.4008 5.1 80.8008 5.1C78.9008 5.1 77.5008 5.8 76.3008 7.2C75.1008 8.6 74.6008 10.9 74.6008 14V25.7C74.6008 28.8 75.2008 31.1 76.3008 32.5C77.4008 33.9 78.9008 34.6 80.8008 34.6C84.5008 34.6 86.5008 31.9 86.8008 26.6V25.9H91.5008V26.7C91.4008 29 91.1008 31 90.4008 32.7C89.8008 34.4 88.9008 35.7 87.9008 36.6C86.9008 37.5 85.7008 38.2 84.5008 38.6C83.3008 39 82.0008 39.2 80.7008 39.2C79.3008 39.2 77.9008 39 76.7008 38.5C75.5008 38 74.3008 37.3 73.2008 36.4C72.1008 35.4 71.3008 34.1 70.6008 32.3C70.1008 30.6 69.8008 28.5 69.8008 26.1Z" fill="white"/>
<path d="M95.6992 26.1V13.6C95.6992 11.2 95.9992 9.2 96.5992 7.4C97.1992 5.6 98.0992 4.3 99.1992 3.3C100.299 2.3 101.399 1.7 102.699 1.2C103.899 0.8 105.299 0.5 106.699 0.5C108.099 0.5 109.399 0.7 110.599 1.1C111.799 1.5 112.999 2.2 114.099 3.2C115.199 4.1 116.099 5.5 116.699 7.3C117.299 9.1 117.699 11.1 117.699 13.5V26C117.699 28.4 117.399 30.5 116.699 32.2C115.999 33.9 115.199 35.3 114.099 36.3C112.999 37.3 111.799 37.9 110.599 38.4C109.399 38.9 107.999 39.1 106.699 39.1C105.299 39.1 103.899 38.9 102.699 38.4C101.499 37.9 100.299 37.2 99.1992 36.3C98.0992 35.3 97.2992 34 96.5992 32.2C95.9992 30.6 95.6992 28.5 95.6992 26.1ZM112.899 25.7V14C112.899 10.9 112.299 8.6 111.199 7.2C109.999 5.8 108.599 5.1 106.699 5.1C104.799 5.1 103.399 5.8 102.199 7.2C100.999 8.6 100.499 10.9 100.499 14V25.7C100.499 28.8 101.099 31.1 102.199 32.5C103.299 33.9 104.799 34.6 106.699 34.6C108.499 34.6 109.999 33.9 111.199 32.5C112.299 31.1 112.899 28.8 112.899 25.7Z" fill="white"/>
<path d="M133.201 17.5V13.6C133.201 11.2 133.501 9.2 134.101 7.4C134.701 5.6 135.601 4.3 136.701 3.3C137.801 2.3 138.901 1.7 140.201 1.2C141.501 0.7 142.801 0.5 144.201 0.5C145.601 0.5 146.901 0.7 148.101 1.1C149.301 1.5 150.501 2.2 151.601 3.2C152.701 4.2 153.601 5.5 154.201 7.3C154.801 9.1 155.101 11.1 155.101 13.5V26C155.101 28.4 154.801 30.5 154.201 32.2C153.601 34 152.701 35.3 151.601 36.3C150.501 37.3 149.301 37.9 148.101 38.4C146.901 38.8 145.501 39.1 144.201 39.1C142.801 39.1 141.401 38.9 140.201 38.4C139.001 37.9 137.801 37.2 136.701 36.3C135.601 35.3 134.801 34 134.101 32.2C133.501 30.4 133.201 28.4 133.201 26V22H128.101V38.6H123.301V1.1H128.101V17.5H133.201ZM150.401 25.7V14C150.401 10.9 149.801 8.6 148.701 7.2C147.601 5.8 146.101 5.1 144.201 5.1C142.301 5.1 140.801 5.8 139.701 7.2C138.601 8.6 138.001 10.9 138.001 14V25.7C138.001 28.8 138.601 31.1 139.701 32.5C140.801 33.9 142.301 34.6 144.201 34.6C146.001 34.6 147.501 33.9 148.701 32.5C149.801 31.1 150.401 28.8 150.401 25.7Z" fill="white"/>
<path d="M170.401 0.600006H171.501C172.601 0.600006 173.801 0.800006 174.901 1.20001C176.001 1.60001 177.001 2.10001 178.101 2.90001C179.101 3.70001 180.001 4.70001 180.601 6.10001C181.201 7.50001 181.601 9.00001 181.601 10.8V11.7C181.601 13.7 181.101 15.3 180.201 16.7C179.301 18.1 178.101 19 176.701 19.5C178.301 20 179.501 21 180.501 22.4C181.501 23.8 181.901 25.6 181.901 27.7V28.5C181.901 30.3 181.501 31.9 181.001 33.3C180.401 34.7 179.601 35.8 178.601 36.6C177.601 37.4 176.501 38.1 175.301 38.5C174.101 38.9 172.801 39.1 171.501 39.2H170.501C169.201 39.2 168.001 38.9 166.801 38.5C165.601 38.1 164.501 37.5 163.501 36.7C162.401 35.9 161.601 34.7 160.901 33.3C160.201 31.8 159.801 30.1 159.601 28.1L159.501 27.8H164.201C164.501 30.1 165.201 31.8 166.501 32.9C167.701 34 169.101 34.6 170.801 34.6H171.301C172.901 34.6 174.301 34 175.501 32.9C176.701 31.8 177.201 30.3 177.201 28.4V28C177.201 26 176.601 24.4 175.401 23.4C174.201 22.3 172.501 21.8 170.401 21.8H167.001V17.3H170.201C172.101 17.3 173.601 16.8 174.801 15.8C176.001 14.8 176.601 13.3 176.601 11.4V11C176.601 9.10001 176.001 7.70001 174.801 6.70001C173.601 5.70001 172.401 5.20001 171.001 5.10001H170.501C169.001 5.10001 167.601 5.60001 166.401 6.70001C165.201 7.80001 164.401 9.40001 164.101 11.5H159.301L159.401 11.1C159.601 9.20001 160.001 7.60001 160.701 6.20001C161.401 4.80001 162.301 3.70001 163.301 2.90001C164.301 2.10001 165.401 1.50001 166.601 1.10001C167.901 0.800006 169.101 0.600006 170.401 0.600006Z" fill="white"/>
<path d="M186.199 0.800003H204.299V5.4H190.899V17.2H195.499C199.299 17.3 202.199 18.2 204.099 20.1C205.999 22 206.999 24.5 206.999 27.8V28.6C206.999 31.9 205.999 34.5 203.999 36.3C202.099 38.1 199.099 39.1 195.299 39.1H186.199V0.800003ZM195.699 22H190.899V34.2H195.699C197.699 34.2 199.399 33.7 200.499 32.7C201.699 31.7 202.299 30.3 202.299 28.3L202.399 27.9C202.399 26 201.799 24.5 200.599 23.5C199.399 22.5 197.799 22 195.699 22Z" fill="white"/>
<path d="M227.698 5.70001H216.198V17.3H227.198V21.9H216.198V34.3H227.698V38.9H211.398V1.10001H227.698V5.70001Z" fill="white"/>
<path d="M250.999 1.10001V5.70001H243.699V38.8H238.999V5.70001H231.699V1.10001H250.999Z" fill="white"/>
<path d="M253.898 26.1V13.6C253.898 11.2 254.198 9.2 254.798 7.4C255.398 5.6 256.298 4.3 257.398 3.3C258.498 2.3 259.598 1.7 260.898 1.2C262.098 0.8 263.498 0.5 264.898 0.5C266.298 0.5 267.598 0.7 268.898 1.1C270.098 1.5 271.298 2.2 272.398 3.2C273.498 4.1 274.398 5.5 274.998 7.3C275.598 9.1 275.998 11.1 275.998 13.5V26C275.998 28.4 275.698 30.5 274.998 32.2C274.298 33.9 273.498 35.3 272.398 36.3C271.298 37.3 270.098 37.9 268.898 38.4C267.698 38.9 266.398 39.1 264.898 39.1C263.498 39.1 262.098 38.9 260.898 38.4C259.698 37.9 258.498 37.2 257.398 36.3C256.298 35.3 255.498 34 254.798 32.2C254.198 30.6 253.898 28.5 253.898 26.1ZM271.098 25.7V14C271.098 10.9 270.498 8.6 269.398 7.2C268.298 5.8 266.798 5.1 264.898 5.1C262.998 5.1 261.498 5.8 260.398 7.2C259.298 8.6 258.698 10.9 258.698 14V25.7C258.698 28.8 259.298 31.1 260.398 32.5C261.498 33.9 262.998 34.6 264.898 34.6C266.698 34.6 268.198 33.9 269.398 32.5C270.498 31.1 271.098 28.8 271.098 25.7Z" fill="white"/>
<path d="M297.302 1.10001H302.002V38.7H297.302V21.8H286.402V38.7H281.602V1.10001H286.402V17.2H297.302V1.10001Z" fill="white"/>
</svg>
